REM DIRINDEX 1\2,1\3
REM DIRNAME folder01,folder02,folder03
TITLE ""
FILE "DISC1Track27.mp3" MP3
  TRACK 01 AUDIO
    TITLE "0:"
    INDEX 01 00:00:00
  TRACK 02 AUDIO
    TITLE "3:cjc133_1198"
    INDEX 01 00:00:21
  TRACK 03 AUDIO
    TITLE "0:"
    INDEX 01 00:01:48
  TRACK 04 AUDIO
    TITLE "2:cjc133_1199"
    INDEX 01 00:02:20
  TRACK 05 AUDIO
    TITLE "2:cjc133_1200"
    INDEX 01 00:06:28
  TRACK 06 AUDIO
    TITLE "2:cjc133_1201"
    INDEX 01 00:10:39
  TRACK 07 AUDIO
    TITLE "0:"
    INDEX 01 00:13:63
  TRACK 08 AUDIO
    TITLE "2:cjc133_1202"
    INDEX 01 00:14:39
  TRACK 09 AUDIO
    TITLE "2:cjc133_1203"
    INDEX 01 00:15:56
  TRACK 10 AUDIO
    TITLE "2:cjc133_1204"
    INDEX 01 00:19:73
  TRACK 11 AUDIO
    TITLE "0:"
    INDEX 01 00:23:22
  TRACK 12 AUDIO
    TITLE "2:cjc133_1205"
    INDEX 01 00:23:69
  TRACK 13 AUDIO
    TITLE "2:cjc133_1206"
    INDEX 01 00:26:09
  TRACK 14 AUDIO
    TITLE "2:cjc133_1207"
    INDEX 01 00:30:08
  TRACK 15 AUDIO
    TITLE "0:"
    INDEX 01 00:33:26
  TRACK 16 AUDIO
    TITLE "2:cjc133_1208"
    INDEX 01 00:34:00
  TRACK 17 AUDIO
    TITLE "2:cjc133_1209"
    INDEX 01 00:36:27
  TRACK 18 AUDIO
    TITLE "2:cjc133_1210"
    INDEX 01 00:40:42
  TRACK 19 AUDIO
    TITLE "0:"
    INDEX 01 00:43:60
  TRACK 20 AUDIO
    TITLE "2:cjc133_1211"
    INDEX 01 00:44:38
  TRACK 21 AUDIO
    TITLE "2:cjc133_1212"
    INDEX 01 00:45:39
  TRACK 22 AUDIO
    TITLE "2:cjc133_1213"
    INDEX 01 00:48:67
  TRACK 23 AUDIO
    TITLE "0:"
    INDEX 01 00:51:40
  TRACK 24 AUDIO
    TITLE "2:cjc133_1214"
    INDEX 01 00:52:16
  TRACK 25 AUDIO
    TITLE "2:cjc133_1215"
    INDEX 01 00:55:20
  TRACK 26 AUDIO
    TITLE "2:cjc133_1216"
    INDEX 01 00:58:56
  TRACK 27 AUDIO
    TITLE "0:"
    INDEX 01 01:01:25
  TRACK 28 AUDIO
    TITLE "2:cjc133_1217"
    INDEX 01 01:01:74
  TRACK 29 AUDIO
    TITLE "2:cjc133_1218"
    INDEX 01 01:04:25
  TRACK 30 AUDIO
    TITLE "2:cjc133_1219"
    INDEX 01 01:08:01
  TRACK 31 AUDIO
    TITLE "0:"
    INDEX 01 01:10:57
  TRACK 32 AUDIO
    TITLE "2:cjc133_1220"
    INDEX 01 01:11:35
  TRACK 33 AUDIO
    TITLE "2:cjc133_1221"
    INDEX 01 01:14:04
  TRACK 34 AUDIO
    TITLE "2:cjc133_1222"
    INDEX 01 01:17:33
  TRACK 35 AUDIO
    TITLE "0:"
    INDEX 01 01:19:68
  TRACK 36 AUDIO
    TITLE "2:cjc133_1223"
    INDEX 01 01:20:49
  TRACK 37 AUDIO
    TITLE "2:cjc133_1224"
    INDEX 01 01:22:64
  TRACK 38 AUDIO
    TITLE "2:cjc133_1225"
    INDEX 01 01:25:55
  TRACK 39 AUDIO
    TITLE "0:"
    INDEX 01 01:27:57
  TRACK 40 AUDIO
    TITLE "2:cjc133_1226"
    INDEX 01 01:28:25
  TRACK 41 AUDIO
    TITLE "2:cjc133_1227"
    INDEX 01 01:30:48
  TRACK 42 AUDIO
    TITLE "2:cjc133_1228"
    INDEX 01 01:33:42
  TRACK 43 AUDIO
    TITLE "0:"
    INDEX 01 01:35:53
  TRACK 44 AUDIO
    TITLE "2:cjc133_1229"
    INDEX 01 01:36:25
  TRACK 45 AUDIO
    TITLE "2:cjc133_1230"
    INDEX 01 01:41:34
  TRACK 46 AUDIO
    TITLE "2:cjc133_1231"
    INDEX 01 01:45:53
  TRACK 47 AUDIO
    TITLE "0:"
    INDEX 01 01:49:08
  TRACK 48 AUDIO
    TITLE "2:cjc133_1232"
    INDEX 01 01:49:49
  TRACK 49 AUDIO
    TITLE "2:cjc133_1233"
    INDEX 01 01:51:34
  TRACK 50 AUDIO
    TITLE "2:cjc133_1234"
    INDEX 01 01:55:52
  TRACK 51 AUDIO
    TITLE "0:"
    INDEX 01 01:58:70
  TRACK 52 AUDIO
    TITLE "2:cjc133_1235"
    INDEX 01 01:59:42
  TRACK 53 AUDIO
    TITLE "2:cjc133_1236"
    INDEX 01 02:00:65
  TRACK 54 AUDIO
    TITLE "2:cjc133_1237"
    INDEX 01 02:04:70
  TRACK 55 AUDIO
    TITLE "0:"
    INDEX 01 02:08:17
  TRACK 56 AUDIO
    TITLE "2:cjc133_1238"
    INDEX 01 02:08:64
  TRACK 57 AUDIO
    TITLE "2:cjc133_1239"
    INDEX 01 02:09:66
  TRACK 58 AUDIO
    TITLE "2:cjc133_1240"
    INDEX 01 02:13:65
  TRACK 59 AUDIO
    TITLE "0:"
    INDEX 01 02:16:72
  TRACK 60 AUDIO
    TITLE "2:cjc133_1241"
    INDEX 01 02:17:49
  TRACK 61 AUDIO
    TITLE "2:cjc133_1242"
    INDEX 01 02:18:49
  TRACK 62 AUDIO
    TITLE "2:cjc133_1243"
    INDEX 01 02:22:31
  TRACK 63 AUDIO
    TITLE "0:"
    INDEX 01 02:25:23
